<svg width="21" height="21" viewBox="0 0 21 21" fill="none" xmlns="http://www.w3.org/2000/svg">
<path d="M4.66667 9.17905H13L10.2583 6.43738C10.1802 6.35991 10.1182 6.26774 10.0759 6.16619C10.0336 6.06464 10.0118 5.95572 10.0118 5.84571C10.0118 5.7357 10.0336 5.62678 10.0759 5.52523C10.1182 5.42368 10.1802 5.33151 10.2583 5.25405C10.4145 5.09884 10.6257 5.01172 10.8458 5.01172C11.066 5.01172 11.2772 5.09884 11.4333 5.25405L15.0083 8.83738C15.3213 9.1485 15.4981 9.57107 15.5 10.0124C15.4959 10.4508 15.3193 10.87 15.0083 11.179L11.4333 14.7624C11.3556 14.8395 11.2635 14.9006 11.1622 14.9422C11.0609 14.9837 10.9524 15.0049 10.8429 15.0045C10.7334 15.0041 10.625 14.9822 10.524 14.9399C10.423 14.8977 10.3313 14.8359 10.2542 14.7582C10.177 14.6805 10.1159 14.5884 10.0744 14.4871C10.0328 14.3858 10.0116 14.2773 10.012 14.1678C10.0124 14.0583 10.0344 13.9499 10.0766 13.8489C10.1189 13.7479 10.1806 13.6562 10.2583 13.579L13 10.8457H4.66667C4.44565 10.8457 4.23369 10.7579 4.07741 10.6016C3.92113 10.4454 3.83333 10.2334 3.83333 10.0124C3.83333 9.79137 3.92113 9.5794 4.07741 9.42312C4.23369 9.26684 4.44565 9.17905 4.66667 9.17905Z" fill="#F9F9F9"/>
</svg>
