<svg width="24" height="24" viewBox="0 0 24 24" fill="none" xmlns="http://www.w3.org/2000/svg">
<g clip-path="url(#clip0_2064_641)">
<path d="M12 17C9.24 17 7 14.76 7 12C7 9.24 9.24 7 12 7C14.76 7 17 9.24 17 12C17 14.76 14.76 17 12 17ZM12 10C10.9 10 10 10.9 10 12C10 13.1 10.9 14 12 14C13.1 14 14 13.1 14 12C14 10.9 13.1 10 12 10ZM13.5 0H10.5V5H13.5V0ZM13.5 19H10.5V24H13.5V19ZM5 10.5H0V13.5H5V10.5ZM24 10.5H19V13.5H24V10.5ZM21.55 4.58L19.43 2.46L15.89 6L18.01 8.12L21.55 4.58ZM8.11 18.02L5.99 15.9L2.45 19.44L4.57 21.56L8.11 18.02ZM8.11 6L4.57 2.46L2.45 4.58L5.99 8.12L8.11 6ZM21.55 19.44L18.01 15.9L15.89 18.02L19.43 21.56L21.55 19.44Z" fill="#F9FAFB"/>
</g>
<defs>
<clipPath id="clip0_2064_641">
<rect width="24" height="24" fill="white"/>
</clipPath>
</defs>
</svg>
