<svg width="18" height="19" viewBox="0 0 18 19" fill="none" xmlns="http://www.w3.org/2000/svg">
<g clip-path="url(#clip0_105_9839)">
<path d="M14.25 14.6182H0V2.99316C0 2.29697 0.276562 1.62929 0.768845 1.13701C1.26113 0.644726 1.92881 0.368164 2.625 0.368164L11.625 0.368164C12.3212 0.368164 12.9889 0.644726 13.4812 1.13701C13.9734 1.62929 14.25 2.29697 14.25 2.99316V14.6182ZM2.25 12.3682H12V2.99316C11.9986 2.89413 11.9587 2.79953 11.8887 2.7295C11.8186 2.65947 11.724 2.61952 11.625 2.61816H2.625C2.52554 2.61816 2.43016 2.65767 2.35984 2.728C2.28951 2.79833 2.25 2.89371 2.25 2.99316V12.3682ZM15.75 4.15641V16.1182H3.75V18.3682H18V6.74316C17.9982 6.11363 17.7699 5.50578 17.3567 5.03079C16.9436 4.5558 16.3732 4.24542 15.75 4.15641Z" fill="#F9F9F9"/>
</g>
<defs>
<clipPath id="clip0_105_9839">
<rect width="18" height="18" fill="white" transform="translate(0 0.368164)"/>
</clipPath>
</defs>
</svg>
