<svg width="24" height="24" viewBox="0 0 24 24" fill="none" xmlns="http://www.w3.org/2000/svg">
<path fill-rule="evenodd" clip-rule="evenodd" d="M11.9998 0.295898C5.37276 0.295898 -0.000244141 5.6679 -0.000244141 12.2959C-0.000244141 17.5979 3.43776 22.0959 8.20576 23.6829C8.80576 23.7939 9.02576 23.4229 9.02576 23.1059C9.02576 22.8199 9.01476 21.8749 9.00976 20.8719C5.67176 21.5979 4.96676 19.4559 4.96676 19.4559C4.42076 18.0689 3.63476 17.6999 3.63476 17.6999C2.54576 16.9549 3.71676 16.9709 3.71676 16.9709C4.92176 17.0559 5.55576 18.2079 5.55576 18.2079C6.62576 20.0419 8.36276 19.5119 9.04776 19.2049C9.15576 18.4289 9.46676 17.8999 9.80976 17.5999C7.14476 17.2969 4.34276 16.2679 4.34276 11.6699C4.34276 10.3599 4.81176 9.2889 5.57976 8.4489C5.45476 8.1459 5.04376 6.9259 5.69576 5.2729C5.69576 5.2729 6.70376 4.9509 8.99676 6.5029C9.95376 6.2369 10.9798 6.1039 11.9998 6.0989C13.0198 6.1039 14.0468 6.2369 15.0058 6.5029C17.2958 4.9499 18.3028 5.2729 18.3028 5.2729C18.9558 6.9259 18.5448 8.1459 18.4208 8.4489C19.1898 9.2889 19.6558 10.3599 19.6558 11.6699C19.6558 16.2789 16.8488 17.2939 14.1768 17.5909C14.6068 17.9629 14.9908 18.6939 14.9908 19.8129C14.9908 21.4189 14.9768 22.7109 14.9768 23.1059C14.9768 23.4249 15.1928 23.7999 15.8008 23.6819C20.5668 22.0929 24.0008 17.5969 24.0008 12.2969C23.9998 5.6689 18.6268 0.295898 11.9998 0.295898Z" fill="#3C54F0"/>
<path d="M4.54479 17.5256C4.51879 17.5856 4.42479 17.6036 4.33879 17.5626C4.25179 17.5236 4.20279 17.4416 4.23079 17.3826C4.25679 17.3216 4.35079 17.3046 4.43779 17.3456C4.52479 17.3836 4.57479 17.4656 4.54479 17.5256Z" fill="#3C54F0"/>
<path d="M5.03085 18.0681C4.97385 18.1211 4.86184 18.0961 4.78584 18.0131C4.70684 17.9291 4.69285 17.8171 4.75085 17.7641C4.80985 17.7111 4.91785 17.7361 4.99685 17.8201C5.07585 17.9031 5.09085 18.0141 5.03085 18.0681Z" fill="#3C54F0"/>
<path d="M5.50367 18.7585C5.42967 18.8095 5.30967 18.7615 5.23567 18.6555C5.16167 18.5485 5.16167 18.4205 5.23767 18.3695C5.31167 18.3185 5.43067 18.3645 5.50567 18.4705C5.57867 18.5785 5.57867 18.7065 5.50367 18.7585Z" fill="#3C54F0"/>
<path d="M6.15171 19.4268C6.08571 19.4998 5.94571 19.4798 5.84371 19.3808C5.73871 19.2838 5.70971 19.1468 5.77571 19.0738C5.84271 19.0008 5.98371 19.0218 6.08671 19.1198C6.19071 19.2168 6.22171 19.3548 6.15171 19.4268Z" fill="#3C54F0"/>
<path d="M7.04683 19.8143C7.01783 19.9083 6.88283 19.9513 6.74683 19.9113C6.61083 19.8703 6.52183 19.7603 6.54983 19.6653C6.57783 19.5703 6.71383 19.5263 6.85083 19.5693C6.98583 19.6093 7.07483 19.7193 7.04683 19.8143Z" fill="#3C54F0"/>
<path d="M8.0287 19.886C8.0317 19.985 7.9167 20.067 7.7737 20.069C7.6307 20.072 7.5137 19.992 7.5127 19.895C7.5127 19.795 7.6257 19.714 7.7687 19.711C7.9117 19.708 8.0287 19.788 8.0287 19.886Z" fill="#3C54F0"/>
<path d="M8.94278 19.7306C8.95978 19.8266 8.86078 19.9266 8.71878 19.9526C8.57978 19.9786 8.45078 19.9186 8.43278 19.8226C8.41578 19.7236 8.51678 19.6246 8.65578 19.5986C8.79678 19.5736 8.92478 19.6316 8.94278 19.7306Z" fill="#3C54F0"/>
</svg>
