<svg width="20" height="21" viewBox="0 0 20 21" fill="none" xmlns="http://www.w3.org/2000/svg">
<g clip-path="url(#clip0_105_7657)">
<path d="M11.4733 1.32426C11.2799 1.13074 11.0502 0.977236 10.7974 0.872504C10.5446 0.767772 10.2736 0.713867 10 0.713867C9.72637 0.713867 9.45541 0.767772 9.20262 0.872504C8.94982 0.977236 8.72013 1.13074 8.52667 1.32426L0 9.85176V17.8684C0 18.5315 0.263392 19.1673 0.732233 19.6362C1.20107 20.105 1.83696 20.3684 2.5 20.3684H17.5C18.163 20.3684 18.7989 20.105 19.2678 19.6362C19.7366 19.1673 20 18.5315 20 17.8684V9.85176L11.4733 1.32426ZM17.5 17.8684H13.3333V15.2168C13.3333 14.3729 12.9981 13.5637 12.4014 12.967C11.8048 12.3703 10.9955 12.0351 10.1517 12.0351H9.84833C9.0045 12.0351 8.19523 12.3703 7.59856 12.967C7.00188 13.5637 6.66667 14.3729 6.66667 15.2168V17.8684H2.5V10.8868L10 3.38676L17.5 10.8868V17.8684Z" fill="#333333"/>
</g>
<defs>
<clipPath id="clip0_105_7657">
<rect width="20" height="20" fill="white" transform="translate(0 0.368164)"/>
</clipPath>
</defs>
</svg>
