<svg width="20" height="21" viewBox="0 0 20 21" fill="none" xmlns="http://www.w3.org/2000/svg">
<g clip-path="url(#clip0_105_7668)">
<path d="M19.9999 9.73961C19.8791 7.78992 19.1904 5.91821 18.0187 4.35519C16.847 2.79217 15.2435 1.60616 13.406 0.943365C11.5684 0.280571 9.57711 0.169961 7.67746 0.625169C5.77781 1.08038 4.05289 2.08151 2.7153 3.50515C1.37772 4.92879 0.485959 6.71272 0.149935 8.63703C-0.186088 10.5613 0.0483181 12.5419 0.824259 14.3346C1.6002 16.1273 2.88376 17.6538 4.51671 18.7259C6.14967 19.7979 8.06064 20.3688 10.0141 20.3679H15.4166C16.6317 20.3664 17.7966 19.883 18.6558 19.0238C19.515 18.1646 19.9984 16.9997 19.9999 15.7846V9.81794V9.73961ZM17.4999 15.7846C17.4999 16.3371 17.2804 16.867 16.8897 17.2577C16.499 17.6485 15.9691 17.8679 15.4166 17.8679H10.0141C8.95529 17.8673 7.90854 17.6435 6.94205 17.2112C5.97557 16.7789 5.11106 16.1477 4.4049 15.3588C3.69561 14.5705 3.16307 13.6396 2.843 12.6287C2.52292 11.6177 2.4227 10.55 2.54907 9.49711C2.74845 7.83726 3.49442 6.29092 4.66943 5.10172C5.84445 3.91252 7.38173 3.14806 9.03907 2.92878C9.36333 2.88831 9.68979 2.86799 10.0166 2.86794C11.7634 2.86294 13.4563 3.47238 14.7991 4.58961C15.5819 5.23987 16.2248 6.04203 16.689 6.94766C17.1532 7.85328 17.429 8.84358 17.4999 9.85878V15.7846Z" fill="#898989"/>
<path d="M7.91675 9.53516H10.4167C10.7483 9.53516 11.0662 9.40346 11.3006 9.16904C11.5351 8.93462 11.6667 8.61668 11.6667 8.28516C11.6667 7.95364 11.5351 7.63569 11.3006 7.40127C11.0662 7.16685 10.7483 7.03516 10.4167 7.03516H7.91675C7.58523 7.03516 7.26728 7.16685 7.03286 7.40127C6.79844 7.63569 6.66675 7.95364 6.66675 8.28516C6.66675 8.61668 6.79844 8.93462 7.03286 9.16904C7.26728 9.40346 7.58523 9.53516 7.91675 9.53516Z" fill="#898989"/>
<path d="M13.7501 11.2012H7.91675C7.58523 11.2012 7.26728 11.3329 7.03286 11.5673C6.79844 11.8017 6.66675 12.1197 6.66675 12.4512C6.66675 12.7827 6.79844 13.1006 7.03286 13.3351C7.26728 13.5695 7.58523 13.7012 7.91675 13.7012H13.7501C14.0816 13.7012 14.3995 13.5695 14.634 13.3351C14.8684 13.1006 15.0001 12.7827 15.0001 12.4512C15.0001 12.1197 14.8684 11.8017 14.634 11.5673C14.3995 11.3329 14.0816 11.2012 13.7501 11.2012Z" fill="#898989"/>
</g>
<defs>
<clipPath id="clip0_105_7668">
<rect width="20" height="20" fill="white" transform="translate(0 0.368164)"/>
</clipPath>
</defs>
</svg>
