<svg width="21" height="21" viewBox="0 0 21 21" fill="none" xmlns="http://www.w3.org/2000/svg">
<path d="M10.1929 10.293C10.135 10.292 10.0681 10.292 9.98551 10.292C9.64034 10.292 9.36051 10.0122 9.36051 9.66701C9.36051 9.32183 9.64034 9.04201 9.98551 9.04201L10.0142 9.042C10.1851 9.04193 10.37 9.04186 10.526 9.06284C10.7088 9.08741 10.9423 9.1506 11.1388 9.3471C11.3353 9.5436 11.3984 9.77709 11.423 9.95986C11.444 10.1159 11.4439 10.3007 11.4439 10.4716L11.4438 14.667C11.4438 15.0122 11.164 15.292 10.8188 15.292C10.4737 15.292 10.1938 15.0122 10.1938 14.667V10.5003C10.1938 10.4178 10.1938 10.3508 10.1929 10.293Z" fill="#3C54F0"/>
<path d="M10.6105 6.33366C10.1503 6.33366 9.77718 6.70676 9.77718 7.16699C9.77718 7.62723 10.1503 8.00033 10.6105 8.00033H10.618C11.0782 8.00033 11.4513 7.62723 11.4513 7.16699C11.4513 6.70676 11.0782 6.33366 10.618 6.33366H10.6105Z" fill="#3C54F0"/>
<path fill-rule="evenodd" clip-rule="evenodd" d="M1.65869 10.5003C1.65869 15.4479 5.66947 19.4587 10.617 19.4587C15.5646 19.4587 19.5754 15.4479 19.5754 10.5003C19.5754 5.55277 15.5646 1.54199 10.617 1.54199C5.66947 1.54199 1.65869 5.55277 1.65869 10.5003ZM10.617 18.2087C6.35983 18.2087 2.90869 14.7575 2.90869 10.5003C2.90869 6.24313 6.35983 2.79199 10.617 2.79199C14.8742 2.79199 18.3254 6.24313 18.3254 10.5003C18.3254 14.7575 14.8742 18.2087 10.617 18.2087Z" fill="#3C54F0"/>
</svg>
