<svg width="24" height="22" viewBox="0 0 24 22" fill="none" xmlns="http://www.w3.org/2000/svg">
<path d="M23.0012 20.5844H23.2282L22.7932 19.9264C23.0592 19.9264 23.2002 19.7574 23.2022 19.5504C23.2022 19.5424 23.2022 19.5334 23.2012 19.5254C23.2012 19.2434 23.0312 19.1084 22.6822 19.1084H22.1182V20.5844H22.3302V19.9414H22.5912L23.0012 20.5844ZM22.5762 19.7744H22.3302V19.2754H22.6422C22.8032 19.2754 22.9872 19.3014 22.9872 19.5124C22.9872 19.7544 22.8022 19.7744 22.5762 19.7744Z" fill="#3C54F0"/>
<path d="M17.2903 18.0734H14.2833V13.3644C14.2833 12.2414 14.2633 10.7964 12.7193 10.7964C11.1533 10.7964 10.9133 12.0194 10.9133 13.2834V18.0734H7.90727V8.38936H10.7943V9.71236H10.8343C11.4233 8.70636 12.5173 8.10536 13.6823 8.14836C16.7303 8.14836 17.2913 10.1534 17.2913 12.7604L17.2903 18.0734ZM4.51427 7.06536C3.55027 7.06536 2.76927 6.28436 2.76927 5.32036C2.76927 4.35636 3.55027 3.57536 4.51427 3.57536C5.47827 3.57536 6.25927 4.35636 6.25927 5.32036C6.25927 6.28436 5.47827 7.06536 4.51427 7.06536ZM6.01727 18.0734H3.00727V8.38936H6.01727V18.0734ZM18.7893 0.783363H1.49627C0.679268 0.774363 0.00926758 1.42936 -0.000732422 2.24636V19.6104C0.00926758 20.4284 0.679268 21.0834 1.49627 21.0744H18.7893C19.6083 21.0844 20.2813 20.4294 20.2923 19.6104V2.24536C20.2803 1.42636 19.6073 0.771363 18.7893 0.782363" fill="#3C54F0"/>
<path d="M22.6027 18.4512C21.8387 18.4582 21.2247 19.0842 21.2327 19.8482C21.2397 20.6122 21.8657 21.2262 22.6297 21.2182C23.3937 21.2112 24.0077 20.5852 23.9997 19.8212C23.9927 19.0672 23.3827 18.4582 22.6297 18.4512H22.6027ZM22.6347 21.0592C21.9647 21.0702 21.3807 20.5372 21.3697 19.8672C21.3587 19.1972 21.8927 18.6452 22.5627 18.6342C23.2327 18.6232 23.7847 19.1572 23.7957 19.8272C23.7957 19.8342 23.7957 19.8402 23.7957 19.8472C23.8097 20.5022 23.2897 21.0452 22.6347 21.0592H22.6037H22.6347Z" fill="#3C54F0"/>
</svg>
