<svg width="170" height="60" viewBox="0 0 170 60" fill="none" xmlns="http://www.w3.org/2000/svg">
<path d="M71.7406 25.5205C68.4816 25.5205 65.8386 28.233 65.8386 31.5715C65.8386 34.91 68.4816 37.6225 71.7406 37.6225C74.9995 37.6225 77.6425 34.91 77.6425 31.5715C77.6425 28.233 74.9995 25.5205 71.7406 25.5205ZM71.7406 34.9497C69.9918 34.9497 68.5809 33.3301 68.5809 31.3231C68.5809 29.316 70.0018 27.6965 71.7406 27.6965C73.4793 27.6965 74.9002 29.316 74.9002 31.3231C74.9002 33.3301 73.4793 34.9497 71.7406 34.9497Z" fill="black"/>
<path d="M81.3484 25.6992H78.7949V37.1951H81.3484V25.6992Z" fill="black"/>
<path d="M98.1404 22.0537H95.7061V34.4935C95.7061 35.9839 96.9182 37.1961 98.4086 37.1961H101.3V35.1294H99.6009C98.7961 35.1294 98.1404 34.4736 98.1404 33.6688V22.0537Z" fill="black"/>
<path d="M85.4822 25.6992H82.9287V37.1951H85.4822V25.6992Z" fill="black"/>
<path d="M57.562 22.1133H54.7004V37.196H57.562V22.1133Z" fill="black"/>
<path d="M60.791 22.1133H55.1672V24.4284H60.3836C61.8541 24.4284 63.0365 25.6704 63.0365 27.2005C63.0365 28.7306 61.8442 29.9726 60.3836 29.9726H55.1672V32.5261H60.791C63.5432 32.5261 65.7788 30.2011 65.7788 27.3296C65.7788 24.4582 63.5432 22.1332 60.791 22.1332V22.1133Z" fill="black"/>
<path d="M3.36154 22.1133H0.5V37.196H3.36154V22.1133Z" fill="black"/>
<path d="M6.59077 22.1133H0.967041V24.4284H6.1834C7.65392 24.4284 8.83629 25.6704 8.83629 27.2005C8.83629 28.7306 7.64398 29.9726 6.1834 29.9726H0.967041V32.5261H6.59077C9.34302 32.5261 11.5786 30.2011 11.5786 27.3296C11.5786 24.4582 9.34302 22.1332 6.59077 22.1332V22.1133Z" fill="black"/>
<path d="M84.9355 27.1006C84.9355 27.1006 86.1477 25.332 88.7708 25.332C91.3939 25.332 93.0929 26.6138 93.0929 29.4058V37.2551H90.599V30.4987C90.599 28.5513 89.8737 27.6968 88.2243 27.6968C86.575 27.6968 84.9355 29.7038 84.9355 29.7038V27.0907V27.1006Z" fill="black"/>
<path d="M80.3747 24.9047C81.2472 24.9047 81.9545 24.1974 81.9545 23.3249C81.9545 22.4524 81.2472 21.7451 80.3747 21.7451C79.5022 21.7451 78.7949 22.4524 78.7949 23.3249C78.7949 24.1974 79.5022 24.9047 80.3747 24.9047Z" fill="black"/>
<path d="M101.002 25.6396H94.0669V27.4679H101.002V25.6396Z" fill="black"/>
<path d="M37.2429 22.0537H34.8086V34.4935C34.8086 35.9839 36.0208 37.1961 37.5112 37.1961H40.949L40.4025 35.1294H38.7035C37.8987 35.1294 37.2429 34.4736 37.2429 33.6688V22.0537Z" fill="black"/>
<path d="M40.1047 25.6396H33.1694V27.4679H40.1047V25.6396Z" fill="black"/>
<path d="M25.807 28.9882C25.807 28.3523 26.3237 27.8356 26.9596 27.8356H32.315V25.4609H26.7509C24.7836 25.4609 23.1938 27.0507 23.1938 29.018C23.1938 30.9853 24.7836 32.575 26.7509 32.575H29.0958C29.7317 32.575 30.2484 33.0917 30.2484 33.7276C30.2484 34.3635 29.7317 34.8802 29.0958 34.8802H23.1938V37.1953H29.215C31.1625 37.1953 32.7423 35.6154 32.7423 33.668C32.7423 31.7206 31.1625 30.1407 29.215 30.1407H26.9596C26.3237 30.1407 25.807 29.6241 25.807 28.9882Z" fill="black"/>
<path d="M51.4813 30.8761C51.4813 29.8427 50.5771 25.4113 46.3146 25.3417C42.6085 25.2821 40.7803 28.1437 40.7803 31.3629C40.7803 34.5821 42.7973 37.1754 46.0761 37.4437C49.0569 37.6822 51.372 36.3507 51.372 36.3507L49.5438 34.3437C49.5438 34.3437 48.3912 35.1982 46.1954 35.1982C43.9995 35.1982 43.2742 33.1911 43.2742 32.277H51.4912V30.8761H51.4813ZM43.2642 30.26C43.2642 29.5943 44.0591 27.5177 46.3046 27.5177C48.5502 27.5177 48.7389 30.26 48.7389 30.26H43.2642Z" fill="black"/>
<path d="M14.7383 33.7574C14.7383 33.0022 15.3543 32.3862 16.1094 32.3862H18.8021C19.0604 32.3862 19.279 32.1776 19.279 31.9093V30.5481C19.279 30.2897 19.0703 30.0712 18.8021 30.0712H16.8844C14.3905 30.0712 12.2742 30.8163 12.2742 33.9163C12.2742 36.8077 14.4899 37.4337 16.3777 37.4337C18.2655 37.4337 19.8453 36.291 19.8453 36.291V37.2449H22.3393V30.25C22.3393 27.2692 20.5111 25.6397 17.7191 25.441C15.5033 25.292 13.2479 25.749 13.2479 25.749L13.4565 27.9747C14.4899 27.8157 15.8213 27.5673 16.8646 27.6368C18.7524 27.7561 19.7261 28.6106 19.7261 30.6772V33.4196C19.7261 34.3635 18.961 35.1186 18.0271 35.1186H16.1094C15.3543 35.1186 14.7383 34.5026 14.7383 33.7474V33.7574Z" fill="black"/>
<g clip-path="url(#clip0_105_9780)">
<path d="M124.388 59.3682V19.5073C124.388 15.8351 127.365 12.8588 131.037 12.8588H151.537C154.438 12.8588 156.791 15.211 156.791 18.1122V23.2546C156.791 26.2368 154.372 28.655 151.39 28.655H137.025V42.2489H152.23C154.918 42.2489 157.496 41.1929 159.413 39.3087L166.223 32.6122C168.32 30.5511 169.499 27.7339 169.499 24.7967V15.691C169.499 12.7508 168.326 9.93064 166.241 7.85749L161.438 3.08715C159.449 1.11001 156.758 0.00292969 153.955 0.00292969H127.446C124.88 0.00292969 122.423 1.038 120.632 2.87413L113.948 9.71762C112.207 11.4937 111.235 13.8819 111.235 16.3721V46.3652L124.388 59.3712V59.3682Z" fill="url(#paint0_linear_105_9780)"/>
<path d="M158.573 50.8262C157.589 50.8262 156.791 51.6452 156.791 52.6533C156.791 53.6614 157.589 54.4804 158.573 54.4804C159.557 54.4804 160.355 53.6614 160.355 52.6533C160.355 51.6452 159.557 50.8262 158.573 50.8262ZM158.573 53.6734C158.045 53.6734 157.619 53.1843 157.619 52.5783C157.619 51.9723 158.048 51.4832 158.573 51.4832C159.098 51.4832 159.527 51.9723 159.527 52.5783C159.527 53.1843 159.098 53.6734 158.573 53.6734Z" fill="black"/>
<path d="M161.474 50.8809H160.703V54.3521H161.474V50.8809Z" fill="black"/>
<path d="M166.544 49.7793H165.809V53.5356C165.809 53.9856 166.175 54.3516 166.625 54.3516H167.498V53.7276H166.985C166.742 53.7276 166.544 53.5296 166.544 53.2865V49.7793Z" fill="black"/>
<path d="M162.722 50.8809H161.951V54.3521H162.722V50.8809Z" fill="black"/>
<path d="M154.292 49.7979H153.427V54.3522H154.292V49.7979Z" fill="black"/>
<path d="M155.266 49.7979H153.568V50.4969H155.143C155.587 50.4969 155.944 50.8719 155.944 51.334C155.944 51.796 155.584 52.171 155.143 52.171H153.568V52.9421H155.266C156.097 52.9421 156.772 52.24 156.772 51.373C156.772 50.5059 156.097 49.8039 155.266 49.8039V49.7979Z" fill="black"/>
<path d="M137.925 49.7979H137.061V54.3522H137.925V49.7979Z" fill="black"/>
<path d="M138.9 49.7979H137.202V50.4969H138.777C139.221 50.4969 139.578 50.8719 139.578 51.334C139.578 51.796 139.218 52.171 138.777 52.171H137.202V52.9421H138.9C139.731 52.9421 140.406 52.24 140.406 51.373C140.406 50.5059 139.731 49.8039 138.9 49.8039V49.7979Z" fill="black"/>
<path d="M162.557 51.3036C162.557 51.3036 162.923 50.7695 163.715 50.7695C164.507 50.7695 165.02 51.1566 165.02 51.9996V54.3698H164.267V52.3296C164.267 51.7416 164.048 51.4836 163.55 51.4836C163.052 51.4836 162.557 52.0896 162.557 52.0896V51.3006V51.3036Z" fill="black"/>
<path d="M161.18 50.6406C161.443 50.6406 161.657 50.427 161.657 50.1636C161.657 49.9001 161.443 49.6865 161.18 49.6865C160.916 49.6865 160.703 49.9001 160.703 50.1636C160.703 50.427 160.916 50.6406 161.18 50.6406Z" fill="black"/>
<path d="M167.408 50.8623H165.314V51.4143H167.408V50.8623Z" fill="black"/>
<path d="M148.156 49.7793H147.421V53.5356C147.421 53.9856 147.787 54.3516 148.237 54.3516H149.275L149.11 53.7276H148.597C148.354 53.7276 148.156 53.5296 148.156 53.2865V49.7793Z" fill="black"/>
<path d="M149.02 50.8623H146.926V51.4143H149.02V50.8623Z" fill="black"/>
<path d="M144.702 51.8737C144.702 51.6817 144.858 51.5256 145.05 51.5256H146.668V50.8086H144.987C144.393 50.8086 143.913 51.2886 143.913 51.8827C143.913 52.4767 144.393 52.9567 144.987 52.9567H145.695C145.887 52.9567 146.043 53.1128 146.043 53.3048C146.043 53.4968 145.887 53.6528 145.695 53.6528H143.913V54.3518H145.731C146.32 54.3518 146.797 53.8748 146.797 53.2868C146.797 52.6987 146.32 52.2217 145.731 52.2217H145.05C144.858 52.2217 144.702 52.0657 144.702 51.8737Z" fill="black"/>
<path d="M152.455 52.4439C152.455 52.1318 152.182 50.7937 150.895 50.7727C149.776 50.7547 149.224 51.6188 149.224 52.5909C149.224 53.5629 149.833 54.346 150.823 54.427C151.723 54.499 152.422 54.097 152.422 54.097L151.87 53.4909C151.87 53.4909 151.522 53.7489 150.859 53.7489C150.196 53.7489 149.977 53.1429 149.977 52.8669H152.458V52.4439H152.455ZM149.974 52.2578C149.974 52.0568 150.214 51.4298 150.892 51.4298C151.57 51.4298 151.627 52.2578 151.627 52.2578H149.974Z" fill="black"/>
<path d="M141.36 53.3132C141.36 53.0852 141.546 52.8991 141.774 52.8991H142.587C142.665 52.8991 142.731 52.8361 142.731 52.7551V52.3441C142.731 52.2661 142.668 52.2001 142.587 52.2001H142.008C141.255 52.2001 140.616 52.4251 140.616 53.3612C140.616 54.2342 141.285 54.4232 141.855 54.4232C142.425 54.4232 142.902 54.0782 142.902 54.0782V54.3662H143.655V52.2541C143.655 51.354 143.103 50.862 142.26 50.802C141.591 50.757 140.91 50.895 140.91 50.895L140.973 51.567C141.285 51.519 141.687 51.444 142.002 51.465C142.572 51.501 142.866 51.7591 142.866 52.3831V53.2112C142.866 53.4962 142.635 53.7242 142.353 53.7242H141.774C141.546 53.7242 141.36 53.5382 141.36 53.3102V53.3132Z" fill="black"/>
</g>
<defs>
<linearGradient id="paint0_linear_105_9780" x1="111.235" y1="29.684" x2="169.499" y2="29.684" gradientUnits="userSpaceOnUse">
<stop offset="0.03" stop-color="#42DCDB"/>
<stop offset="0.11" stop-color="#3DC6D6"/>
<stop offset="0.24" stop-color="#38ADD1"/>
<stop offset="0.35" stop-color="#359ECE"/>
<stop offset="0.45" stop-color="#3499CD"/>
<stop offset="0.58" stop-color="#3680D9"/>
<stop offset="0.78" stop-color="#3C54F0"/>
<stop offset="0.83" stop-color="#414BEC"/>
<stop offset="0.92" stop-color="#5035E1"/>
<stop offset="0.97" stop-color="#5A27DB"/>
</linearGradient>
<clipPath id="clip0_105_9780">
<rect width="58.2641" height="59.3682" fill="white" transform="translate(111.236)"/>
</clipPath>
</defs>
</svg>
