<svg width="21" height="20" viewBox="0 0 21 20" fill="none" xmlns="http://www.w3.org/2000/svg">
<path d="M4.70771 0.274901C3.73271 -0.203432 2.58021 -0.0442654 1.77271 0.683235C0.965215 1.4099 0.684381 2.5399 1.05688 3.5599L4.47855 10.0049L1.12188 16.4441C0.751048 17.4657 1.03438 18.5941 1.84271 19.3191C2.34105 19.7657 2.96938 19.9966 3.60521 19.9966C4.00271 19.9966 4.40355 19.9066 4.77771 19.7224L20.8044 9.99657L4.70771 0.274901ZM3.39355 2.65323C3.39021 2.62157 3.39938 2.58323 3.44521 2.5424C3.49938 2.49407 3.54438 2.49657 3.57605 2.50657L13.9077 8.7499H6.64271L3.39355 2.65323ZM3.64271 17.4941C3.61021 17.5049 3.56521 17.5066 3.51271 17.4591C3.46605 17.4174 3.45771 17.3774 3.46105 17.3457L6.65021 11.2507H13.926L3.64355 17.4941H3.64271Z" fill="#F9F9F9"/>
</svg>
