<svg width="20" height="21" viewBox="0 0 20 21" fill="none" xmlns="http://www.w3.org/2000/svg">
<g clip-path="url(#clip0_105_7690)">
<path d="M6.25 11.2015C5.50832 11.2015 4.7833 10.9816 4.16661 10.5695C3.54993 10.1575 3.06928 9.57178 2.78545 8.88656C2.50162 8.20134 2.42736 7.44734 2.57206 6.71991C2.71675 5.99248 3.0739 5.3243 3.59835 4.79985C4.1228 4.2754 4.79098 3.91825 5.51841 3.77355C6.24584 3.62886 6.99984 3.70312 7.68506 3.98695C8.37029 4.27078 8.95596 4.75143 9.36801 5.36811C9.78007 5.9848 10 6.70982 10 7.4515C9.9989 8.44572 9.60345 9.39891 8.90043 10.1019C8.19741 10.805 7.24422 11.2004 6.25 11.2015ZM6.25 6.2015C6.00277 6.2015 5.7611 6.27481 5.55554 6.41216C5.34998 6.54951 5.18976 6.74474 5.09515 6.97315C5.00054 7.20155 4.97579 7.45289 5.02402 7.69536C5.07225 7.93784 5.1913 8.16057 5.36612 8.33538C5.54093 8.5102 5.76366 8.62925 6.00614 8.67748C6.24861 8.72571 6.49995 8.70096 6.72835 8.60635C6.95676 8.51174 7.15199 8.35152 7.28934 8.14596C7.42669 7.9404 7.5 7.69873 7.5 7.4515C7.5 7.11998 7.3683 6.80204 7.13388 6.56762C6.89946 6.3332 6.58152 6.2015 6.25 6.2015ZM12.5 17.4515C12.4987 16.2363 12.0154 15.0713 11.1561 14.2121C10.2969 13.3528 9.13184 12.8695 7.91667 12.8682H4.58333C3.36816 12.8695 2.20314 13.3528 1.34389 14.2121C0.484634 15.0713 0.00132347 16.2363 0 17.4515L0 20.3682H2.5V17.4515C2.5 16.899 2.71949 16.3691 3.11019 15.9784C3.5009 15.5877 4.0308 15.3682 4.58333 15.3682H7.91667C8.19025 15.3682 8.46116 15.4221 8.71392 15.5268C8.96669 15.6314 9.19635 15.7849 9.38981 15.9784C9.58326 16.1718 9.73672 16.4015 9.84142 16.6542C9.94611 16.907 10 17.1779 10 17.4515V20.3682H12.5V17.4515ZM14.5833 7.86817C13.8417 7.86817 13.1166 7.64823 12.4999 7.23618C11.8833 6.82412 11.4026 6.23845 11.1188 5.55323C10.835 4.86801 10.7607 4.11401 10.9054 3.38658C11.0501 2.65915 11.4072 1.99096 11.9317 1.46652C12.4561 0.942068 13.1243 0.584916 13.8517 0.440221C14.5792 0.295526 15.3332 0.369789 16.0184 0.653618C16.7036 0.937446 17.2893 1.41809 17.7013 2.03478C18.1134 2.65146 18.3333 3.37649 18.3333 4.11817C18.3322 5.11239 17.9368 6.06558 17.2338 6.7686C16.5307 7.47162 15.5776 7.86706 14.5833 7.86817ZM14.5833 2.86817C14.3361 2.86817 14.0944 2.94148 13.8889 3.07883C13.6833 3.21618 13.5231 3.4114 13.4285 3.63981C13.3339 3.86822 13.3091 4.11955 13.3574 4.36203C13.4056 4.60451 13.5246 4.82723 13.6995 5.00205C13.8743 5.17687 14.097 5.29592 14.3395 5.34415C14.5819 5.39238 14.8333 5.36762 15.0617 5.27302C15.2901 5.17841 15.4853 5.01819 15.6227 4.81263C15.76 4.60707 15.8333 4.36539 15.8333 4.11817C15.8333 3.78665 15.7016 3.4687 15.4672 3.23428C15.2328 2.99986 14.9149 2.86817 14.5833 2.86817ZM20 14.1182C19.9987 12.903 19.5154 11.738 18.6561 10.8787C17.7969 10.0195 16.6318 9.53616 15.4167 9.53483H12.5V12.0348H15.4167C15.9692 12.0348 16.4991 12.2543 16.8898 12.645C17.2805 13.0357 17.5 13.5656 17.5 14.1182V17.0348H20V14.1182Z" fill="#333333"/>
</g>
<defs>
<clipPath id="clip0_105_7690">
<rect width="20" height="20" fill="white" transform="translate(0 0.368164)"/>
</clipPath>
</defs>
</svg>
