<svg width="21" height="21" viewBox="0 0 21 21" fill="none" xmlns="http://www.w3.org/2000/svg">
<g clip-path="url(#clip0_105_7663)">
<path d="M20.1747 9.73961C20.0539 7.78992 19.3652 5.91821 18.1935 4.35519C17.0218 2.79217 15.4183 1.60616 13.5808 0.943365C11.7433 0.280571 9.75192 0.169961 7.85227 0.625169C5.95262 1.08038 4.22769 2.08151 2.89011 3.50515C1.55253 4.92879 0.660763 6.71272 0.32474 8.63703C-0.0112835 10.5613 0.223123 12.5419 0.999064 14.3346C1.77501 16.1273 3.05856 17.6538 4.69152 18.7259C6.32447 19.7979 8.23545 20.3688 10.1889 20.3679H15.5914C16.8065 20.3664 17.9714 19.883 18.8306 19.0238C19.6898 18.1646 20.1732 16.9997 20.1747 15.7846V9.81794V9.73961ZM17.6747 15.7846C17.6747 16.3371 17.4552 16.867 17.0645 17.2577C16.6738 17.6485 16.1439 17.8679 15.5914 17.8679H10.1889C9.1301 17.8673 8.08334 17.6435 7.11686 17.2112C6.15038 16.7789 5.28587 16.1477 4.57971 15.3588C3.87042 14.5705 3.33788 13.6396 3.0178 12.6287C2.69772 11.6177 2.59751 10.55 2.72387 9.49711C2.92326 7.83726 3.66922 6.29092 4.84424 5.10172C6.01926 3.91252 7.55653 3.14806 9.21387 2.92878C9.53814 2.88831 9.8646 2.86799 10.1914 2.86794C11.9382 2.86294 13.6311 3.47238 14.9739 4.58961C15.7567 5.23987 16.3996 6.04203 16.8638 6.94766C17.328 7.85328 17.6039 8.84358 17.6747 9.85878V15.7846Z" fill="#3C54F0"/>
<path d="M8.09155 9.53516H10.5916C10.9231 9.53516 11.241 9.40346 11.4754 9.16904C11.7099 8.93462 11.8416 8.61668 11.8416 8.28516C11.8416 7.95364 11.7099 7.63569 11.4754 7.40127C11.241 7.16685 10.9231 7.03516 10.5916 7.03516H8.09155C7.76003 7.03516 7.44209 7.16685 7.20767 7.40127C6.97325 7.63569 6.84155 7.95364 6.84155 8.28516C6.84155 8.61668 6.97325 8.93462 7.20767 9.16904C7.44209 9.40346 7.76003 9.53516 8.09155 9.53516Z" fill="#3C54F0"/>
<path d="M13.9249 11.2012H8.09155C7.76003 11.2012 7.44209 11.3329 7.20767 11.5673C6.97325 11.8017 6.84155 12.1197 6.84155 12.4512C6.84155 12.7827 6.97325 13.1006 7.20767 13.3351C7.44209 13.5695 7.76003 13.7012 8.09155 13.7012H13.9249C14.2564 13.7012 14.5743 13.5695 14.8088 13.3351C15.0432 13.1006 15.1749 12.7827 15.1749 12.4512C15.1749 12.1197 15.0432 11.8017 14.8088 11.5673C14.5743 11.3329 14.2564 11.2012 13.9249 11.2012Z" fill="#3C54F0"/>
</g>
<defs>
<clipPath id="clip0_105_7663">
<rect width="20" height="20" fill="white" transform="translate(0.174805 0.368164)"/>
</clipPath>
</defs>
</svg>
