<svg width="14" height="13" viewBox="0 0 14 13" fill="none" xmlns="http://www.w3.org/2000/svg">
<path d="M9.12083 6.50031L12.9998 2.61731C13.2517 2.33107 13.3851 1.95967 13.3729 1.5786C13.3607 1.19753 13.2039 0.8354 12.9343 0.565807C12.6647 0.296215 12.3026 0.139398 11.9215 0.127232C11.5405 0.115065 11.1691 0.248463 10.8828 0.500309L6.99983 4.37931L3.10983 0.488308C2.9705 0.348976 2.80509 0.238452 2.62304 0.163045C2.441 0.0876392 2.24588 0.0488281 2.04883 0.0488281C1.85179 0.0488281 1.65667 0.0876392 1.47462 0.163045C1.29258 0.238452 1.12717 0.348976 0.987833 0.488308C0.8485 0.627641 0.737976 0.793053 0.66257 0.9751C0.587163 1.15715 0.548352 1.35226 0.548352 1.54931C0.548352 1.74635 0.587163 1.94147 0.66257 2.12352C0.737976 2.30556 0.8485 2.47098 0.987833 2.61031L4.87883 6.50031L0.999833 10.3823C0.847705 10.5183 0.724923 10.6839 0.638996 10.869C0.55307 11.054 0.505807 11.2547 0.500099 11.4587C0.494391 11.6626 0.530357 11.8656 0.605798 12.0552C0.681239 12.2448 0.794568 12.417 0.938852 12.5613C1.08314 12.7056 1.25534 12.8189 1.44493 12.8943C1.63452 12.9698 1.83751 13.0058 2.04147 13C2.24544 12.9943 2.4461 12.9471 2.63118 12.8611C2.81625 12.7752 2.98184 12.6524 3.11783 12.5003L6.99983 8.62131L10.8778 12.5003C11.1592 12.7817 11.5409 12.9398 11.9388 12.9398C12.3368 12.9398 12.7184 12.7817 12.9998 12.5003C13.2812 12.2189 13.4393 11.8373 13.4393 11.4393C13.4393 11.0414 13.2812 10.6597 12.9998 10.3783L9.12083 6.50031Z" fill="#6B7280"/>
</svg>
