<svg width="24" height="24" viewBox="0 0 24 24" fill="none" xmlns="http://www.w3.org/2000/svg">
<path d="M14.1211 12.0003L18.0001 8.11731C18.2519 7.83107 18.3853 7.45967 18.3732 7.0786C18.361 6.69753 18.2042 6.3354 17.9346 6.06581C17.665 5.79622 17.3029 5.6394 16.9218 5.62723C16.5407 5.61507 16.1693 5.74846 15.8831 6.00031L12.0001 9.87931L8.11008 5.98831C7.97074 5.84898 7.80533 5.73845 7.62329 5.66305C7.44124 5.58764 7.24612 5.54883 7.04908 5.54883C6.85203 5.54883 6.65691 5.58764 6.47487 5.66305C6.29282 5.73845 6.12741 5.84898 5.98808 5.98831C5.84874 6.12764 5.73822 6.29305 5.66281 6.4751C5.58741 6.65715 5.5486 6.85226 5.5486 7.04931C5.5486 7.24635 5.58741 7.44147 5.66281 7.62352C5.73822 7.80556 5.84874 7.97098 5.98808 8.11031L9.87908 12.0003L6.00008 15.8823C5.84795 16.0183 5.72517 16.1839 5.63924 16.369C5.55331 16.554 5.50605 16.7547 5.50034 16.9587C5.49463 17.1626 5.5306 17.3656 5.60604 17.5552C5.68148 17.7448 5.79481 17.917 5.9391 18.0613C6.08338 18.2056 6.25558 18.3189 6.44517 18.3943C6.63476 18.4698 6.83775 18.5058 7.04172 18.5C7.24569 18.4943 7.44635 18.4471 7.63142 18.3611C7.81649 18.2752 7.98209 18.1524 8.11808 18.0003L12.0001 14.1213L15.8781 18.0003C16.1595 18.2817 16.5411 18.4398 16.9391 18.4398C17.337 18.4398 17.7187 18.2817 18.0001 18.0003C18.2815 17.7189 18.4396 17.3373 18.4396 16.9393C18.4396 16.5414 18.2815 16.1597 18.0001 15.8783L14.1211 12.0003Z" fill="#D93333"/>
</svg>
