<svg width="25" height="24" viewBox="0 0 25 24" fill="none" xmlns="http://www.w3.org/2000/svg">
<path d="M12.3465 14C14.3856 13.9477 16.4075 13.6112 18.3535 13C17.7385 15.28 15.6895 18 12.3535 18C9.01753 18 6.96153 15.28 6.34653 13C8.29009 13.6116 10.3097 13.9482 12.3465 14ZM8.35353 11C8.88396 11 9.39267 10.7893 9.76774 10.4142C10.1428 10.0391 10.3535 9.53043 10.3535 9C10.3535 8.46957 10.1428 7.96086 9.76774 7.58579C9.39267 7.21071 8.88396 7 8.35353 7C7.82309 7 7.31439 7.21071 6.93931 7.58579C6.56424 7.96086 6.35353 8.46957 6.35353 9C6.35353 9.53043 6.56424 10.0391 6.93931 10.4142C7.31439 10.7893 7.82309 11 8.35353 11ZM16.3535 7C15.8231 7 15.3144 7.21071 14.9393 7.58579C14.5642 7.96086 14.3535 8.46957 14.3535 9C14.3535 9.53043 14.5642 10.0391 14.9393 10.4142C15.3144 10.7893 15.8231 11 16.3535 11C16.884 11 17.3927 10.7893 17.7677 10.4142C18.1428 10.0391 18.3535 9.53043 18.3535 9C18.3535 8.46957 18.1428 7.96086 17.7677 7.58579C17.3927 7.21071 16.884 7 16.3535 7ZM24.3535 12C24.3501 15.1815 23.0847 18.2318 20.835 20.4815C18.5853 22.7312 15.5351 23.9966 12.3535 24C-3.54647 23.4 -3.53947 0.6 12.3535 0C15.5351 0.00344108 18.5853 1.26883 20.835 3.51852C23.0847 5.76821 24.3501 8.81846 24.3535 12ZM21.3535 12C21.3509 9.61386 20.4018 7.32622 18.7146 5.63896C17.0273 3.95171 14.7397 3.00265 12.3535 3C0.430527 3.452 0.433527 20.549 12.3535 21C14.7397 20.9974 17.0273 20.0483 18.7146 18.361C20.4018 16.6738 21.3509 14.3861 21.3535 12Z" fill="#6B7280"/>
</svg>
