<svg width="52" height="52" viewBox="0 0 52 52" fill="none" xmlns="http://www.w3.org/2000/svg">
<path d="M52 26C52 32.9782 49.2507 39.3144 44.7763 43.9844C40.0439 48.9244 33.381 52 26 52C18.619 52 11.9561 48.9244 7.22366 43.9844C2.74926 39.3144 0 32.9782 0 26C0 11.6407 11.6407 0 26 0C40.3593 0 52 11.6407 52 26Z" fill="url(#paint0_linear_105_7729)"/>
<path d="M25.9996 27.3957C31.8658 27.3957 36.6213 22.6402 36.6213 16.774C36.6213 10.9078 31.8658 6.15234 25.9996 6.15234C20.1334 6.15234 15.3779 10.9078 15.3779 16.774C15.3779 22.6402 20.1334 27.3957 25.9996 27.3957Z" fill="url(#paint1_radial_105_7729)"/>
<path d="M44.7756 43.9848C40.0431 48.9248 33.3803 52.0004 25.9992 52.0004C18.6182 52.0004 11.9554 48.9248 7.2229 43.9848C9.89543 36.1838 17.2926 30.5762 25.9992 30.5762C34.7058 30.5762 42.1031 36.1838 44.7756 43.9848Z" fill="url(#paint2_radial_105_7729)"/>
<defs>
<linearGradient id="paint0_linear_105_7729" x1="0" y1="25.9974" x2="52" y2="25.9974" gradientUnits="userSpaceOnUse">
<stop offset="0.03" stop-color="#42DCDB"/>
<stop offset="0.11" stop-color="#3DC6D6"/>
<stop offset="0.24" stop-color="#38ADD1"/>
<stop offset="0.35" stop-color="#359ECE"/>
<stop offset="0.45" stop-color="#3499CD"/>
<stop offset="0.58" stop-color="#3680D9"/>
<stop offset="0.78" stop-color="#3C54F0"/>
<stop offset="0.83" stop-color="#414BEC"/>
<stop offset="0.92" stop-color="#5035E1"/>
<stop offset="0.97" stop-color="#5A27DB"/>
</linearGradient>
<radialGradient id="paint1_radial_105_7729" cx="0" cy="0" r="1" gradientUnits="userSpaceOnUse" gradientTransform="translate(23.5407 13.0326) scale(15.5598)">
<stop stop-color="white"/>
<stop offset="0.9989" stop-color="#D1D1D1"/>
</radialGradient>
<radialGradient id="paint2_radial_105_7729" cx="0" cy="0" r="1" gradientUnits="userSpaceOnUse" gradientTransform="translate(21.6525 37.515) scale(21.8542)">
<stop stop-color="white"/>
<stop offset="0.9989" stop-color="#D1D1D1"/>
</radialGradient>
</defs>
</svg>
