<svg width="25" height="24" viewBox="0 0 25 24" fill="none" xmlns="http://www.w3.org/2000/svg">
<path d="M7.27882 17.15L6.41482 16.286L8.53582 14.164L9.39982 15.028C10.7688 16.396 12.9968 16.397 14.3658 15.028L20.3708 9.024C21.7398 7.655 21.7398 5.427 20.3708 4.058C19.1758 2.863 17.3288 2.68 15.9678 3.569C14.9938 3.189 13.9458 2.989 12.8678 2.989H12.8658C12.6328 2.989 12.4008 2.999 12.1718 3.017L13.2838 1.905C14.5538 0.635 16.2208 0 17.8888 0C19.5558 0 21.1258 0.577 22.5728 2.025C25.0268 4.57 25.0028 8.635 22.4928 11.145L16.4878 17.149C15.2178 18.419 13.5508 19.053 11.8838 19.053C10.2168 19.053 8.54882 18.418 7.27982 17.149L7.27882 17.15ZM2.21282 21.972C3.74182 23.501 5.23182 23.998 6.89882 23.997C8.56582 23.997 10.2328 23.362 11.5008 22.093L12.6128 20.981C12.3828 20.999 12.1518 21.009 11.9188 21.009H11.9168C10.8388 21.009 9.79082 20.81 8.81682 20.429C7.45682 21.318 5.60882 21.134 4.41382 19.939C3.04482 18.57 3.04482 16.342 4.41382 14.973L10.4188 8.969C11.7878 7.6 14.0158 7.6 15.3848 8.969L16.2488 9.833L18.3698 7.711L17.5058 6.847C14.9678 4.309 10.8368 4.308 8.29782 6.847L2.29282 12.852C-0.217182 15.362 -0.241182 19.427 2.21282 21.972Z" fill="#6B7280"/>
</svg>
