<svg width="24" height="24" viewBox="0 0 24 24" fill="none" xmlns="http://www.w3.org/2000/svg">
<g clip-path="url(#clip0_105_8501)">
<path d="M19 8.00037V7.15137C19 5.29485 18.2625 3.51437 16.9497 2.20162C15.637 0.888865 13.8565 0.151367 12 0.151367C10.1435 0.151367 8.36301 0.888865 7.05025 2.20162C5.7375 3.51437 5 5.29485 5 7.15137V8.00037H2V21.0004C2 21.796 2.31607 22.5591 2.87868 23.1217C3.44129 23.6843 4.20435 24.0004 5 24.0004H19C19.7957 24.0004 20.5587 23.6843 21.1213 23.1217C21.6839 22.5591 22 21.796 22 21.0004V8.00037H19ZM8 7.15137C8 6.0905 8.42143 5.07309 9.17157 4.32294C9.92172 3.57279 10.9391 3.15137 12 3.15137C13.0609 3.15137 14.0783 3.57279 14.8284 4.32294C15.5786 5.07309 16 6.0905 16 7.15137V8.00037H8V7.15137ZM5 21.0004V11.0004H19V21.0004H5Z" fill="#3C54F0"/>
<path d="M14 14H10V17H14V14Z" fill="#3C54F0"/>
</g>
<defs>
<clipPath id="clip0_105_8501">
<rect width="24" height="24" fill="white"/>
</clipPath>
</defs>
</svg>
