<svg width="24" height="24" viewBox="0 0 24 24" fill="none" xmlns="http://www.w3.org/2000/svg">
<g clip-path="url(#clip0_2064_1732)">
<path d="M14 23.9997C10.8185 23.9962 7.76821 22.7308 5.51851 20.4811C3.26882 18.2314 2.00344 15.1812 1.99999 11.9996C1.84699 3.04265 12.031 -2.98335 19.792 1.50765L22.122 2.79965L19.809 4.12165C18.4531 4.90741 17.3393 6.0507 16.5892 7.42662C15.839 8.80253 15.4815 10.3581 15.5556 11.9235C15.6297 13.4888 16.1326 15.0037 17.0093 16.3026C17.8861 17.6015 19.103 18.6345 20.527 19.2886L22.96 20.3886L20.76 21.8966C18.7716 23.266 16.4143 23.9994 14 23.9997ZM14 2.99965C12.6939 2.99598 11.4026 3.27665 10.2159 3.82216C9.02911 4.36766 7.97531 5.16494 7.12764 6.15862C6.27997 7.15231 5.65874 8.31859 5.30708 9.57648C4.95542 10.8344 4.88177 12.1537 5.09123 13.4429C5.3007 14.7322 5.78826 15.9603 6.52006 17.0422C7.25187 18.1241 8.21038 19.0337 9.32904 19.7079C10.4477 20.3821 11.6997 20.8047 12.9981 20.9465C14.2965 21.0882 15.6102 20.9456 16.848 20.5286C11.482 16.5066 11.055 7.75865 16.031 3.22865C15.3651 3.07434 14.6836 2.99749 14 2.99965Z" fill="black"/>
</g>
<defs>
<clipPath id="clip0_2064_1732">
<rect width="24" height="24" fill="white"/>
</clipPath>
</defs>
</svg>
