<?xml version="1.0" encoding="UTF-8"?>
<svg id="Layer_2" data-name="Layer 2" xmlns="http://www.w3.org/2000/svg" xmlns:xlink="http://www.w3.org/1999/xlink" viewBox="0 0 194.2 197.88">
  <defs>
    <style>
      .cls-1 {
        fill: url(#linear-gradient);
      }

      .cls-1, .cls-2 {
        stroke-width: 0px;
      }

      .cls-2 {
        fill: #000;
      }
    </style>
    <linearGradient id="linear-gradient" x1="0" y1="98.94" x2="194.2" y2="98.94" gradientUnits="userSpaceOnUse">
      <stop offset=".03" stop-color="#42dcdb"/>
      <stop offset=".11" stop-color="#3dc6d6"/>
      <stop offset=".24" stop-color="#38add1"/>
      <stop offset=".35" stop-color="#359ece"/>
      <stop offset=".45" stop-color="#3499cd"/>
      <stop offset=".58" stop-color="#3680d9"/>
      <stop offset=".78" stop-color="#3c54f0"/>
      <stop offset=".83" stop-color="#414bec"/>
      <stop offset=".92" stop-color="#5035e1"/>
      <stop offset=".97" stop-color="#5a27db"/>
    </linearGradient>
  </defs>
  <path class="cls-1" d="M43.84,197.88V65.02c0-12.24,9.92-22.16,22.16-22.16h68.33c9.67,0,17.51,7.84,17.51,17.51v17.14c0,9.94-8.06,18-18,18h-47.88v45.31h50.68c8.96,0,17.55-3.52,23.94-9.8l22.7-22.32c6.99-6.87,10.92-16.26,10.92-26.05v-30.35c0-9.8-3.91-19.2-10.86-26.11l-16.01-15.9c-6.63-6.59-15.6-10.28-24.94-10.28H54.03c-8.55,0-16.74,3.45-22.71,9.57l-22.28,22.81C3.24,38.31,0,46.27,0,54.57v99.97l43.84,43.35Z"/>
  <path class="cls-2" d="M157.78,169.41c-3.28,0-5.94,2.73-5.94,6.09s2.66,6.09,5.94,6.09,5.94-2.73,5.94-6.09-2.66-6.09-5.94-6.09ZM157.78,178.9c-1.76,0-3.18-1.63-3.18-3.65s1.43-3.65,3.18-3.65,3.18,1.63,3.18,3.65-1.43,3.65-3.18,3.65Z"/>
  <rect class="cls-2" x="164.88" y="169.59" width="2.57" height="11.57"/>
  <rect class="cls-2" x="168.98" y="169.59" width="2.57" height="11.57"/>
  <path class="cls-2" d="M188.45,165.92h-2.45v12.52c0,1.5,1.22,2.72,2.72,2.72h2.91v-2.08h-1.71c-.81,0-1.47-.66-1.47-1.47v-11.69Z"/>
  <rect class="cls-2" x="173.14" y="169.59" width="2.57" height="11.57"/>
  <rect class="cls-2" x="140.63" y="165.98" width="2.88" height="15.18"/>
  <path class="cls-2" d="M146.76,165.98h-5.66v2.33h5.25c1.48,0,2.67,1.25,2.67,2.79s-1.2,2.79-2.67,2.79h-5.25v2.57h5.66c2.77,0,5.02-2.34,5.02-5.23s-2.25-5.23-5.02-5.23Z"/>
  <rect class="cls-2" x="86.08" y="165.98" width="2.88" height="15.18"/>
  <path class="cls-2" d="M92.21,165.98h-5.66v2.33h5.25c1.48,0,2.67,1.25,2.67,2.79s-1.2,2.79-2.67,2.79h-5.25v2.57h5.66c2.77,0,5.02-2.34,5.02-5.23s-2.25-5.23-5.02-5.23Z"/>
  <path class="cls-2" d="M175.16,171s1.22-1.78,3.86-1.78,4.35,1.29,4.35,4.1v7.9h-2.51v-6.8c0-1.96-.73-2.82-2.39-2.82s-3.31,2.02-3.31,2.02v-2.63Z"/>
  <circle class="cls-2" cx="166.47" cy="167.2" r="1.59"/>
  <rect class="cls-2" x="184.35" y="169.53" width="6.98" height="1.84"/>
  <path class="cls-2" d="M123.06,165.92h-2.45v12.52c0,1.5,1.22,2.72,2.72,2.72h3.46l-.55-2.08h-1.71c-.81,0-1.47-.66-1.47-1.47v-11.69Z"/>
  <rect class="cls-2" x="118.96" y="169.53" width="6.98" height="1.84"/>
  <path class="cls-2" d="M111.55,172.9h0c0-.64.52-1.16,1.16-1.16h5.39v-2.39h-5.6c-1.98,0-3.58,1.6-3.58,3.58h0c0,1.98,1.6,3.58,3.58,3.58h2.36c.64,0,1.16.52,1.16,1.16h0c0,.64-.52,1.16-1.16,1.16h-5.94v2.33h6.06c1.96,0,3.55-1.59,3.55-3.55h0c0-1.96-1.59-3.55-3.55-3.55h-2.27c-.64,0-1.16-.52-1.16-1.16Z"/>
  <path class="cls-2" d="M137.39,174.8c0-1.04-.91-5.5-5.2-5.57-3.73-.06-5.57,2.82-5.57,6.06s2.03,5.85,5.33,6.12c3,.24,5.33-1.1,5.33-1.1l-1.84-2.02s-1.16.86-3.37.86-2.94-2.02-2.94-2.94h8.27v-1.41ZM129.12,174.18c0-.67.8-2.76,3.06-2.76s2.45,2.76,2.45,2.76h-5.51Z"/>
  <path class="cls-2" d="M100.41,177.7h0c0-.76.62-1.38,1.38-1.38h2.71c.26,0,.48-.21.48-.48v-1.37c0-.26-.21-.48-.48-.48h-1.93c-2.51,0-4.64.75-4.64,3.87,0,2.91,2.23,3.54,4.13,3.54s3.49-1.15,3.49-1.15v.96h2.51v-7.04c0-3-1.84-4.64-4.65-4.84-2.23-.15-4.5.31-4.5.31l.21,2.24c1.04-.16,2.38-.41,3.43-.34,1.9.12,2.88.98,2.88,3.06v2.76c0,.95-.77,1.71-1.71,1.71h-1.93c-.76,0-1.38-.62-1.38-1.38Z"/>
</svg>
