<?xml version="1.0" encoding="UTF-8"?>
<!DOCTYPE svg PUBLIC "-//W3C//DTD SVG 1.1//EN" "http://www.w3.org/Graphics/SVG/1.1/DTD/svg11.dtd">
<svg xmlns="http://www.w3.org/2000/svg" version="1.1" width="512px" height="512px" style="shape-rendering:geometricPrecision; text-rendering:geometricPrecision; image-rendering:optimizeQuality; fill-rule:evenodd; clip-rule:evenodd" xmlns:xlink="http://www.w3.org/1999/xlink">
<g><path style="opacity:0.989" fill="#010101" d="M 107.5,-0.5 C 160.833,-0.5 214.167,-0.5 267.5,-0.5C 270.542,1.22405 272.375,3.89071 273,7.5C 273.499,12.4889 273.666,17.4889 273.5,22.5C 297.836,22.3334 322.169,22.5 346.5,23C 361.004,24.1679 370.504,31.6679 375,45.5C 375.5,69.1643 375.667,92.831 375.5,116.5C 378.568,115.978 381.568,115.145 384.5,114C 387.833,113.333 391.167,113.333 394.5,114C 431.894,125.465 469.228,137.131 506.5,149C 508.362,150.366 510.028,151.866 511.5,153.5C 511.5,192.167 511.5,230.833 511.5,269.5C 499.972,336.535 461.305,379.035 395.5,397C 388.736,397.714 382.069,397.214 375.5,395.5C 375.667,411.503 375.5,427.503 375,443.5C 352.966,466.7 330.466,489.367 307.5,511.5C 271.167,511.5 234.833,511.5 198.5,511.5C 194.469,509.447 192.469,506.113 192.5,501.5C 193.07,497.088 195.403,493.922 199.5,492C 230.498,491.5 261.498,491.333 292.5,491.5C 283.167,440.167 304.167,419.167 355.5,428.5C 355.5,414.5 355.5,400.5 355.5,386.5C 305.662,363.287 276.662,324.287 268.5,269.5C 240.506,268.667 212.506,268.167 184.5,268C 178.205,265.575 176.038,261.075 178,254.5C 179.167,252 181,250.167 183.5,249C 211.498,248.5 239.498,248.333 267.5,248.5C 267.5,218.833 267.5,189.167 267.5,159.5C 239.831,159.667 212.165,159.5 184.5,159C 177.518,155.787 175.685,150.62 179,143.5C 180.214,141.951 181.714,140.785 183.5,140C 224.5,139.667 265.5,139.333 306.5,139C 322.536,133.932 338.536,128.766 354.5,123.5C 355.666,98.8401 355.833,74.1734 355,49.5C 353.749,46.6193 351.583,44.786 348.5,44C 323.169,43.5 297.836,43.3334 272.5,43.5C 274.619,54.2056 271.952,63.3723 264.5,71C 262.5,72 260.5,73 258.5,74C 234.728,75.1523 210.894,75.6523 187,75.5C 163.106,75.6523 139.272,75.1523 115.5,74C 108.744,70.9115 104.577,65.7448 103,58.5C 102.501,53.5111 102.334,48.5111 102.5,43.5C 76.8312,43.3334 51.1645,43.5 25.5,44C 23,45.1667 21.1667,47 20,49.5C 19.3333,194.167 19.3333,338.833 20,483.5C 20.504,487.02 22.3374,489.52 25.5,491C 55.1667,491.333 84.8333,491.667 114.5,492C 119.441,493.419 122.441,496.585 123.5,501.5C 123.003,505.843 121.003,509.176 117.5,511.5C 85.5,511.5 53.5,511.5 21.5,511.5C 10.5,507.833 3.16667,500.5 -0.5,489.5C -0.5,341.5 -0.5,193.5 -0.5,45.5C 3.01035,34.4903 10.3437,27.3236 21.5,24C 48.1333,22.5643 74.7999,22.0643 101.5,22.5C 100.901,15.6086 101.735,8.94197 104,2.5C 105.145,1.36362 106.312,0.363622 107.5,-0.5 Z"/></g>
<g><path style="opacity:1" fill="#b4bbc8" d="M 122.5,19.5 C 165.833,19.5 209.167,19.5 252.5,19.5C 252.5,31.5 252.5,43.5 252.5,55.5C 209.167,55.5 165.833,55.5 122.5,55.5C 122.5,43.5 122.5,31.5 122.5,19.5 Z"/></g>
<g><path style="opacity:1" fill="#fefefe" d="M 192.5,501.5 C 184.5,501.5 176.5,501.5 168.5,501.5C 166.18,493.172 160.847,490.338 152.5,493C 149.404,495.029 147.738,497.862 147.5,501.5C 139.5,501.5 131.5,501.5 123.5,501.5C 122.441,496.585 119.441,493.419 114.5,492C 84.8333,491.667 55.1667,491.333 25.5,491C 22.3374,489.52 20.504,487.02 20,483.5C 19.3333,338.833 19.3333,194.167 20,49.5C 21.1667,47 23,45.1667 25.5,44C 51.1645,43.5 76.8312,43.3334 102.5,43.5C 102.334,48.5111 102.501,53.5111 103,58.5C 104.577,65.7448 108.744,70.9115 115.5,74C 139.272,75.1523 163.106,75.6523 187,75.5C 210.894,75.6523 234.728,75.1523 258.5,74C 260.5,73 262.5,72 264.5,71C 271.952,63.3723 274.619,54.2056 272.5,43.5C 297.836,43.3334 323.169,43.5 348.5,44C 351.583,44.786 353.749,46.6193 355,49.5C 355.833,74.1734 355.666,98.8401 354.5,123.5C 338.536,128.766 322.536,133.932 306.5,139C 265.5,139.333 224.5,139.667 183.5,140C 181.714,140.785 180.214,141.951 179,143.5C 175.685,150.62 177.518,155.787 184.5,159C 212.165,159.5 239.831,159.667 267.5,159.5C 267.5,189.167 267.5,218.833 267.5,248.5C 239.498,248.333 211.498,248.5 183.5,249C 181,250.167 179.167,252 178,254.5C 176.038,261.075 178.205,265.575 184.5,268C 212.506,268.167 240.506,268.667 268.5,269.5C 276.662,324.287 305.662,363.287 355.5,386.5C 355.5,400.5 355.5,414.5 355.5,428.5C 304.167,419.167 283.167,440.167 292.5,491.5C 261.498,491.333 230.498,491.5 199.5,492C 195.403,493.922 193.07,497.088 192.5,501.5 Z"/></g>
<g><path style="opacity:1" fill="#77b0fc" d="M 385.5,134.5 C 387.857,134.337 390.19,134.503 392.5,135C 425.428,145.476 458.428,155.643 491.5,165.5C 491.667,198.168 491.5,230.835 491,263.5C 482.404,323.932 448.57,361.932 389.5,377.5C 330.426,361.928 296.592,323.928 288,263.5C 287.167,230.828 287.333,198.162 288.5,165.5C 321.003,155.331 353.336,144.998 385.5,134.5 Z"/></g>
<g><path style="opacity:1" fill="#040404" d="M 132.5,141.5 C 143.198,141.348 147.365,146.348 145,156.5C 129.833,171.667 114.667,186.833 99.5,202C 96.1667,204 92.8333,204 89.5,202C 82.3333,194.833 75.1667,187.667 68,180.5C 65.4536,168.18 70.287,163.68 82.5,167C 86.1667,170.667 89.8333,174.333 93.5,178C 94.1667,178.667 94.8333,178.667 95.5,178C 107.728,165.604 120.062,153.437 132.5,141.5 Z"/></g>
<g><path style="opacity:1" fill="#020203" d="M 385.5,155.5 C 387.857,155.337 390.19,155.503 392.5,156C 416.833,163.667 441.167,171.333 465.5,179C 468,180.167 469.833,182 471,184.5C 471.667,210.167 471.667,235.833 471,261.5C 465.998,303.375 444.498,333.208 406.5,351C 400.973,353.343 395.306,355.176 389.5,356.5C 350.222,345.939 324.389,321.273 312,282.5C 310.188,275.587 308.855,268.587 308,261.5C 307.018,235.08 307.352,208.746 309,182.5C 310.167,181.333 311.333,180.167 312.5,179C 337.05,171.426 361.384,163.593 385.5,155.5 Z"/></g>
<g><path style="opacity:1" fill="#fdfdfd" d="M 385.5,176.5 C 407.69,181.507 429.523,187.84 451,195.5C 451.667,217.5 451.667,239.5 451,261.5C 445.679,297.318 426.179,321.818 392.5,335C 387.561,335.469 382.894,334.469 378.5,332C 348.991,317.157 332.157,293.324 328,260.5C 327.5,238.503 327.333,216.503 327.5,194.5C 347.104,189.074 366.437,183.074 385.5,176.5 Z"/></g>
<g><path style="opacity:1" fill="#070707" d="M 182.5,183.5 C 200.17,183.333 217.836,183.5 235.5,184C 241.172,186.768 243.006,191.268 241,197.5C 239.749,200.381 237.583,202.214 234.5,203C 217.833,203.667 201.167,203.667 184.5,203C 177.951,200.221 175.784,195.388 178,188.5C 179.707,186.963 181.207,185.296 182.5,183.5 Z"/></g>
<g><path style="opacity:1" fill="#020202" d="M 417.5,225.5 C 428.861,224.686 433.028,229.686 430,240.5C 415.138,255.696 399.971,270.529 384.5,285C 381.036,285.817 377.702,285.483 374.5,284C 366,275.5 357.5,267 349,258.5C 345.64,249.881 348.473,244.881 357.5,243.5C 359.634,243.515 361.634,244.015 363.5,245C 369.015,250.682 374.681,256.182 380.5,261.5C 392.881,249.451 405.214,237.451 417.5,225.5 Z"/></g>
<g><path style="opacity:1" fill="#040404" d="M 132.5,250.5 C 143.198,250.348 147.365,255.348 145,265.5C 129.833,280.667 114.667,295.833 99.5,311C 96.1667,313 92.8333,313 89.5,311C 82.3333,303.833 75.1667,296.667 68,289.5C 65.4536,277.18 70.287,272.68 82.5,276C 86.1667,279.667 89.8333,283.333 93.5,287C 94.1667,287.667 94.8333,287.667 95.5,287C 107.728,274.604 120.062,262.437 132.5,250.5 Z"/></g>
<g><path style="opacity:1" fill="#080808" d="M 182.5,292.5 C 201.17,292.333 219.836,292.5 238.5,293C 246.869,300.18 246.202,306.513 236.5,312C 219.167,312.667 201.833,312.667 184.5,312C 177.951,309.221 175.784,304.388 178,297.5C 179.707,295.963 181.207,294.296 182.5,292.5 Z"/></g>
<g><path style="opacity:1" fill="#040404" d="M 183.5,357.5 C 215.835,357.333 248.168,357.5 280.5,358C 286.169,360.815 288.002,365.315 286,371.5C 284.749,374.381 282.583,376.214 279.5,377C 247.833,377.667 216.167,377.667 184.5,377C 177.518,373.787 175.685,368.62 179,361.5C 180.397,359.93 181.897,358.596 183.5,357.5 Z"/></g>
<g><path style="opacity:1" fill="#070707" d="M 132.5,359.5 C 143.198,359.348 147.365,364.348 145,374.5C 130.194,389.973 115.027,405.14 99.5,420C 96.1667,422 92.8333,422 89.5,420C 82.3333,412.833 75.1667,405.667 68,398.5C 65.1898,390.449 67.8565,385.449 76,383.5C 78.7318,383.615 81.2318,384.448 83.5,386C 86.8333,389.333 90.1667,392.667 93.5,396C 94.1667,396.667 94.8333,396.667 95.5,396C 107.728,383.604 120.062,371.437 132.5,359.5 Z"/></g>
<g><path style="opacity:1" fill="#060606" d="M 182.5,401.5 C 208.169,401.333 233.835,401.5 259.5,402C 265.484,405.363 266.984,410.197 264,416.5C 262.363,418.81 260.196,420.31 257.5,421C 233.167,421.667 208.833,421.667 184.5,421C 177.947,418.27 175.78,413.437 178,406.5C 179.707,404.963 181.207,403.296 182.5,401.5 Z"/></g>
<g><path style="opacity:1" fill="#fcd69c" d="M 318.5,448.5 C 325.841,448.334 333.174,448.5 340.5,449C 331.333,458.167 322.167,467.333 313,476.5C 312.333,469.167 312.333,461.833 313,454.5C 314.36,451.977 316.193,449.977 318.5,448.5 Z"/></g>
<g><path style="opacity:0.945" fill="#040404" d="M 168.5,501.5 C 168.003,505.843 166.003,509.176 162.5,511.5C 159.5,511.5 156.5,511.5 153.5,511.5C 149.469,509.447 147.469,506.113 147.5,501.5C 147.738,497.862 149.404,495.029 152.5,493C 160.847,490.338 166.18,493.172 168.5,501.5 Z"/></g>
</svg>
