<?xml version="1.0" encoding="UTF-8"?>
<svg id="Layer_2" data-name="Layer 2" xmlns="http://www.w3.org/2000/svg" xmlns:xlink="http://www.w3.org/1999/xlink" viewBox="0 0 194.2 197.88">
  <defs>
    <style>
      .cls-1 {
        fill: url(#linear-gradient);
      }

      .cls-1, .cls-2 {
        stroke-width: 0px;
      }

      .cls-2 {
        fill: #000;
      }
    </style>
    <linearGradient id="linear-gradient" x1="0" y1="98.94" x2="194.2" y2="98.94" gradientUnits="userSpaceOnUse">
      <stop offset=".03" stop-color="#42dcdb"/>
      <stop offset=".11" stop-color="#3dc6d6"/>
      <stop offset=".24" stop-color="#38add1"/>
      <stop offset=".35" stop-color="#359ece"/>
      <stop offset=".45" stop-color="#3499cd"/>
      <stop offset=".58" stop-color="#3680d9"/>
      <stop offset=".78" stop-color="#3c54f0"/>
      <stop offset=".83" stop-color="#414bec"/>
      <stop offset=".92" stop-color="#5035e1"/>
      <stop offset=".97" stop-color="#5a27db"/>
    </linearGradient>
  </defs>
  <path class="cls-1" d="m43.84,197.88l0,-132.86c0,-12.24 9.92,-22.16 22.16,-22.16l68.33,0c9.67,0 17.51,7.84 17.51,17.51l0,17.14c0,9.94 -8.06,18 -18,18l-47.88,0l0,45.31l50.68,0c8.96,0 17.55,-3.52 23.94,-9.8l22.7,-22.32c6.99,-6.87 10.92,-16.26 10.92,-26.05l0,-30.35c0,-9.8 -3.91,-19.2 -10.86,-26.11l-16.01,-15.9c-6.63,-6.59 -15.6,-10.28 -24.94,-10.28l-88.36,0c-8.55,0 -16.74,3.45 -22.71,9.57l-22.28,22.81c-5.8,5.92 -9.04,13.88 -9.04,22.18l0,99.97l43.84,43.35l0,-0.01z"/>
  <path class="cls-2" d="m157.78,169.41c-3.28,0 -5.94,2.73 -5.94,6.09s2.66,6.09 5.94,6.09s5.94,-2.73 5.94,-6.09s-2.66,-6.09 -5.94,-6.09zm0,9.49c-1.76,0 -3.18,-1.63 -3.18,-3.65s1.43,-3.65 3.18,-3.65s3.18,1.63 3.18,3.65s-1.43,3.65 -3.18,3.65z"/>
  <rect class="cls-2" height="11.57" width="2.57" x="164.88" y="169.59"/>
  <path class="cls-2" d="m184.35,165.92l-2.45,0l0,12.52c0,1.5 1.22,2.72 2.72,2.72l2.91,0l0,-2.08l-1.71,0c-0.81,0 -1.47,-0.66 -1.47,-1.47l0,-11.69z"/>
  <rect class="cls-2" height="11.57" width="2.57" x="169.04" y="169.59"/>
  <rect class="cls-2" height="15.18" width="2.88" x="140.63" y="165.98"/>
  <path class="cls-2" d="m146.76,165.98l-5.66,0l0,2.33l5.25,0c1.48,0 2.67,1.25 2.67,2.79s-1.2,2.79 -2.67,2.79l-5.25,0l0,2.57l5.66,0c2.77,0 5.02,-2.34 5.02,-5.23s-2.25,-5.23 -5.02,-5.23l0,-0.02z"/>
  <rect class="cls-2" height="15.18" width="2.88" x="86.08" y="165.98"/>
  <path class="cls-2" d="m92.21,165.98l-5.66,0l0,2.33l5.25,0c1.48,0 2.67,1.25 2.67,2.79s-1.2,2.79 -2.67,2.79l-5.25,0l0,2.57l5.66,0c2.77,0 5.02,-2.34 5.02,-5.23s-2.25,-5.23 -5.02,-5.23l0,-0.02z"/>
  <path class="cls-2" d="m171.06,171s1.22,-1.78 3.86,-1.78s4.35,1.29 4.35,4.1l0,7.9l-2.51,0l0,-6.8c0,-1.96 -0.73,-2.82 -2.39,-2.82s-3.31,2.02 -3.31,2.02l0,-2.63l0,0.01z"/>
  <circle class="cls-2" cx="166.47" cy="167.2" r="1.59"/>
  <rect class="cls-2" height="1.84" width="6.98" x="180.25" y="169.53"/>
  <path class="cls-2" d="m123.06,165.92l-2.45,0l0,12.52c0,1.5 1.22,2.72 2.72,2.72l3.46,0l-0.55,-2.08l-1.71,0c-0.81,0 -1.47,-0.66 -1.47,-1.47l0,-11.69z"/>
  <rect class="cls-2" height="1.84" width="6.98" x="118.96" y="169.53"/>
  <path class="cls-2" d="m111.55,172.9l0,0c0,-0.64 0.52,-1.16 1.16,-1.16l5.39,0l0,-2.39l-5.6,0c-1.98,0 -3.58,1.6 -3.58,3.58l0,0c0,1.98 1.6,3.58 3.58,3.58l2.36,0c0.64,0 1.16,0.52 1.16,1.16l0,0c0,0.64 -0.52,1.16 -1.16,1.16l-5.94,0l0,2.33l6.06,0c1.96,0 3.55,-1.59 3.55,-3.55l0,0c0,-1.96 -1.59,-3.55 -3.55,-3.55l-2.27,0c-0.64,0 -1.16,-0.52 -1.16,-1.16z"/>
  <path class="cls-2" d="m137.39,174.8c0,-1.04 -0.91,-5.5 -5.2,-5.57c-3.73,-0.06 -5.57,2.82 -5.57,6.06s2.03,5.85 5.33,6.12c3,0.24 5.33,-1.1 5.33,-1.1l-1.84,-2.02s-1.16,0.86 -3.37,0.86s-2.94,-2.02 -2.94,-2.94l8.27,0l0,-1.41l-0.01,0zm-8.27,-0.62c0,-0.67 0.8,-2.76 3.06,-2.76s2.45,2.76 2.45,2.76l-5.51,0z"/>
  <path class="cls-2" d="m100.41,177.7l0,0c0,-0.76 0.62,-1.38 1.38,-1.38l2.71,0c0.26,0 0.48,-0.21 0.48,-0.48l0,-1.37c0,-0.26 -0.21,-0.48 -0.48,-0.48l-1.93,0c-2.51,0 -4.64,0.75 -4.64,3.87c0,2.91 2.23,3.54 4.13,3.54s3.49,-1.15 3.49,-1.15l0,0.96l2.51,0l0,-7.04c0,-3 -1.84,-4.64 -4.65,-4.84c-2.23,-0.15 -4.5,0.31 -4.5,0.31l0.21,2.24c1.04,-0.16 2.38,-0.41 3.43,-0.34c1.9,0.12 2.88,0.98 2.88,3.06l0,2.76c0,0.95 -0.77,1.71 -1.71,1.71l-1.93,0c-0.76,0 -1.38,-0.62 -1.38,-1.38l0,0.01z"/>
</svg>
